<?xml version="1.0" encoding="utf-8"?>
<!-- Generator: Adobe Illustrator 25.1.0, SVG Export Plug-In . SVG Version: 6.00 Build 0)  -->
<svg version="1.1" xmlns="http://www.w3.org/2000/svg" xmlns:xlink="http://www.w3.org/1999/xlink" x="0px" y="0px"
	 viewBox="0 0 318.02 100.33" style="enable-background:new 0 0 318.02 100.33;" xml:space="preserve">
<style type="text/css">
	.st0{fill:#88774F;}
	.st1{fill:#00080C;}
	.st2{fill:none;}
</style>
<g id="Brandmark">
	<g>
		<g>
			<g>
				<path class="st0" d="M90.73,69.07c-0.07,0-0.12-0.04-0.15-0.11l-1.77-3.66h-0.12h-2.17c-0.05,0-0.07,0.02-0.07,0.07v3.58
					c0,0.08-0.04,0.12-0.13,0.12h-0.47c-0.08,0-0.13-0.04-0.13-0.12v-8.2c0-0.08,0.04-0.12,0.12-0.12h2.84
					c0.8,0,1.44,0.21,1.89,0.62c0.46,0.41,0.68,0.99,0.68,1.71c0,0.59-0.15,1.07-0.45,1.46c-0.3,0.39-0.73,0.64-1.27,0.78l1.84,3.74
					c0.02,0.04,0.03,0.07,0.02,0.1c-0.01,0.02-0.04,0.04-0.08,0.04H90.73z M88.68,64.62c0.6,0,1.06-0.14,1.39-0.43
					c0.32-0.29,0.48-0.7,0.48-1.24c0-0.53-0.16-0.94-0.48-1.23s-0.78-0.43-1.39-0.43h-2.15c-0.05,0-0.07,0.02-0.07,0.07v3.18
					c0,0.05,0.02,0.07,0.07,0.07H88.68z"/>
				<path class="st0" d="M96.03,69.19c-0.7,0-1.27-0.16-1.73-0.48c-0.46-0.32-0.79-0.79-1-1.42c-0.04-0.11-0.08-0.23-0.11-0.37
					c-0.03-0.14-0.05-0.3-0.07-0.48c-0.02-0.19-0.04-0.41-0.05-0.66c-0.01-0.26-0.02-0.57-0.02-0.93c0-0.36,0.01-0.67,0.02-0.93
					c0.01-0.26,0.03-0.48,0.05-0.66c0.02-0.19,0.05-0.35,0.07-0.48c0.03-0.13,0.06-0.26,0.11-0.37c0.21-0.62,0.54-1.09,1-1.42
					c0.46-0.32,1.04-0.48,1.73-0.48c0.69,0,1.26,0.16,1.72,0.48c0.46,0.32,0.79,0.79,1,1.42c0.03,0.12,0.07,0.24,0.1,0.37
					c0.03,0.13,0.06,0.29,0.08,0.48c0.02,0.19,0.04,0.41,0.05,0.66C99,64.17,99,64.48,99,64.84c0,0.36-0.01,0.68-0.02,0.93
					c-0.01,0.26-0.03,0.48-0.05,0.66c-0.02,0.19-0.05,0.35-0.08,0.48c-0.03,0.14-0.07,0.26-0.1,0.37c-0.21,0.62-0.54,1.09-1,1.42
					C97.29,69.03,96.72,69.19,96.03,69.19z M98.28,64.84c0-0.34-0.01-0.63-0.02-0.88c-0.01-0.25-0.03-0.46-0.04-0.63
					c-0.02-0.17-0.04-0.32-0.07-0.43c-0.03-0.12-0.06-0.22-0.08-0.3c-0.31-0.95-0.99-1.43-2.04-1.43c-1.05,0-1.73,0.48-2.05,1.43
					c-0.02,0.08-0.05,0.18-0.08,0.3c-0.03,0.12-0.05,0.26-0.07,0.43c-0.02,0.17-0.03,0.38-0.04,0.63c-0.01,0.25-0.02,0.54-0.02,0.88
					c0,0.34,0.01,0.63,0.02,0.88c0.01,0.25,0.03,0.46,0.04,0.63c0.02,0.17,0.04,0.32,0.07,0.43c0.03,0.12,0.06,0.22,0.08,0.3
					c0.31,0.95,1,1.43,2.05,1.43c1.04,0,1.72-0.48,2.04-1.43c0.02-0.08,0.05-0.18,0.08-0.3c0.03-0.12,0.05-0.26,0.07-0.43
					c0.02-0.17,0.03-0.38,0.04-0.63S98.28,65.18,98.28,64.84z"/>
				<path class="st0" d="M102.7,69.07c-0.08,0-0.13-0.04-0.13-0.12V65.6l-2.53-4.84c-0.02-0.03-0.01-0.06,0.01-0.09
					c0.02-0.03,0.05-0.04,0.09-0.04h0.48c0.08,0,0.14,0.04,0.19,0.12l2.13,4.04h0.04l2.09-4.04c0.04-0.08,0.1-0.12,0.19-0.12h0.47
					c0.05,0,0.08,0.01,0.1,0.04c0.02,0.03,0.02,0.06,0,0.09l-2.53,4.84v3.34c0,0.08-0.04,0.12-0.13,0.12H102.7z"/>
				<path class="st0" d="M108.78,60.74c0.02-0.08,0.07-0.12,0.15-0.12h0.45c0.07,0,0.12,0.04,0.15,0.12l2.93,8.2
					c0.02,0.08,0,0.12-0.09,0.12h-0.48c-0.09,0-0.15-0.04-0.16-0.12l-0.75-2.07h-3.68l-0.75,2.07c-0.03,0.08-0.09,0.12-0.16,0.12
					h-0.48c-0.08,0-0.11-0.04-0.09-0.12L108.78,60.74z M110.74,66.17l-1.58-4.41h-0.04l-1.59,4.41H110.74z"/>
				<path class="st0" d="M114.18,60.74c0-0.08,0.04-0.12,0.13-0.12h0.47c0.08,0,0.13,0.04,0.13,0.12v7.58
					c0,0.05,0.02,0.07,0.07,0.07h4.17c0.08,0,0.12,0.04,0.12,0.12v0.42c0,0.08-0.04,0.12-0.12,0.12h-4.84
					c-0.08,0-0.13-0.04-0.13-0.12V60.74z"/>
				<path class="st0" d="M124.1,67.3c-0.03-0.11-0.06-0.23-0.09-0.35c-0.03-0.13-0.05-0.29-0.07-0.48
					c-0.02-0.19-0.03-0.42-0.04-0.68c-0.01-0.26-0.02-0.58-0.02-0.95c0-0.37,0.01-0.69,0.02-0.95c0.01-0.26,0.03-0.49,0.04-0.68
					c0.02-0.19,0.04-0.35,0.07-0.48c0.03-0.13,0.06-0.25,0.09-0.35c0.22-0.64,0.55-1.11,0.99-1.42c0.45-0.31,1.01-0.47,1.68-0.47
					c0.58,0,1.09,0.13,1.53,0.39c0.44,0.26,0.78,0.65,1.02,1.17c0.03,0.07,0.02,0.13-0.04,0.16l-0.41,0.2
					c-0.07,0.04-0.12,0.02-0.16-0.05c-0.19-0.36-0.44-0.66-0.75-0.88c-0.31-0.22-0.71-0.33-1.19-0.33c-0.52,0-0.94,0.12-1.26,0.35
					c-0.32,0.24-0.56,0.59-0.73,1.05c-0.02,0.08-0.05,0.18-0.07,0.3c-0.02,0.12-0.05,0.26-0.06,0.43s-0.03,0.38-0.04,0.63
					c-0.01,0.25-0.01,0.55-0.01,0.91c0,0.36,0,0.66,0.01,0.91c0.01,0.25,0.02,0.46,0.04,0.63s0.04,0.32,0.06,0.43
					c0.02,0.12,0.05,0.22,0.07,0.3c0.17,0.46,0.41,0.81,0.73,1.05c0.32,0.24,0.74,0.35,1.26,0.35c0.48,0,0.88-0.11,1.19-0.33
					c0.31-0.22,0.56-0.51,0.75-0.88c0.04-0.07,0.09-0.09,0.16-0.05l0.41,0.2c0.06,0.03,0.07,0.09,0.04,0.16
					c-0.24,0.52-0.58,0.91-1.02,1.17c-0.44,0.26-0.95,0.39-1.53,0.39c-0.67,0-1.23-0.16-1.68-0.47
					C124.65,68.41,124.32,67.94,124.1,67.3z"/>
				<path class="st0" d="M133.85,69.19c-0.7,0-1.27-0.16-1.73-0.48c-0.46-0.32-0.79-0.79-1-1.42c-0.04-0.11-0.08-0.23-0.11-0.37
					c-0.03-0.14-0.05-0.3-0.07-0.48c-0.02-0.19-0.04-0.41-0.05-0.66c-0.01-0.26-0.02-0.57-0.02-0.93c0-0.36,0.01-0.67,0.02-0.93
					c0.01-0.26,0.03-0.48,0.05-0.66c0.02-0.19,0.05-0.35,0.07-0.48c0.03-0.13,0.06-0.26,0.11-0.37c0.21-0.62,0.54-1.09,1-1.42
					c0.46-0.32,1.04-0.48,1.73-0.48c0.69,0,1.26,0.16,1.72,0.48c0.46,0.32,0.79,0.79,1,1.42c0.03,0.12,0.07,0.24,0.1,0.37
					c0.03,0.13,0.06,0.29,0.08,0.48c0.02,0.19,0.04,0.41,0.05,0.66c0.01,0.26,0.02,0.57,0.02,0.93c0,0.36-0.01,0.68-0.02,0.93
					c-0.01,0.26-0.03,0.48-0.05,0.66c-0.02,0.19-0.05,0.35-0.08,0.48s-0.07,0.26-0.1,0.37c-0.21,0.62-0.54,1.09-1,1.42
					C135.11,69.03,134.54,69.19,133.85,69.19z M136.1,64.84c0-0.34-0.01-0.63-0.02-0.88c-0.01-0.25-0.03-0.46-0.04-0.63
					c-0.02-0.17-0.04-0.32-0.07-0.43c-0.03-0.12-0.06-0.22-0.08-0.3c-0.31-0.95-0.99-1.43-2.04-1.43c-1.05,0-1.73,0.48-2.05,1.43
					c-0.02,0.08-0.05,0.18-0.08,0.3c-0.03,0.12-0.05,0.26-0.07,0.43c-0.02,0.17-0.03,0.38-0.04,0.63c-0.01,0.25-0.02,0.54-0.02,0.88
					c0,0.34,0.01,0.63,0.02,0.88s0.03,0.46,0.04,0.63c0.02,0.17,0.04,0.32,0.07,0.43c0.03,0.12,0.06,0.22,0.08,0.3
					c0.31,0.95,1,1.43,2.05,1.43c1.04,0,1.72-0.48,2.04-1.43c0.02-0.08,0.05-0.18,0.08-0.3c0.03-0.12,0.05-0.26,0.07-0.43
					c0.02-0.17,0.03-0.38,0.04-0.63C136.09,65.48,136.1,65.18,136.1,64.84z"/>
				<path class="st0" d="M138.86,60.74c0-0.08,0.04-0.12,0.13-0.12h0.48c0.09,0,0.16,0.04,0.19,0.12l2.74,6.05h0.05l2.68-6.05
					c0.03-0.08,0.09-0.12,0.18-0.12h0.49c0.08,0,0.13,0.04,0.13,0.12v8.2c0,0.08-0.04,0.12-0.13,0.12h-0.47
					c-0.08,0-0.13-0.04-0.13-0.12v-6.61h-0.04l-2.43,5.35c-0.02,0.05-0.05,0.08-0.08,0.11c-0.03,0.02-0.08,0.03-0.14,0.03h-0.25
					c-0.1,0-0.17-0.05-0.21-0.14l-2.43-5.35h-0.04v6.61c0,0.08-0.04,0.12-0.13,0.12h-0.47c-0.08,0-0.13-0.04-0.13-0.12V60.74z"/>
				<path class="st0" d="M148.22,60.74c0-0.08,0.04-0.12,0.13-0.12h0.48c0.09,0,0.16,0.04,0.19,0.12l2.74,6.05h0.05l2.68-6.05
					c0.03-0.08,0.09-0.12,0.18-0.12h0.49c0.08,0,0.13,0.04,0.13,0.12v8.2c0,0.08-0.04,0.12-0.13,0.12h-0.47
					c-0.08,0-0.13-0.04-0.13-0.12v-6.61h-0.04l-2.43,5.35c-0.02,0.05-0.05,0.08-0.08,0.11c-0.03,0.02-0.08,0.03-0.14,0.03h-0.25
					c-0.1,0-0.17-0.05-0.21-0.14l-2.43-5.35h-0.04v6.61c0,0.08-0.04,0.12-0.13,0.12h-0.47c-0.08,0-0.13-0.04-0.13-0.12V60.74z"/>
				<path class="st0" d="M157.57,60.74c0-0.08,0.04-0.12,0.13-0.12h0.47c0.08,0,0.13,0.04,0.13,0.12v8.2c0,0.08-0.04,0.12-0.13,0.12
					h-0.47c-0.08,0-0.13-0.04-0.13-0.12V60.74z"/>
				<path class="st0" d="M163.05,69.19c-0.27,0-0.55-0.03-0.82-0.08c-0.27-0.05-0.53-0.13-0.78-0.22c-0.24-0.09-0.47-0.2-0.67-0.32
					c-0.2-0.12-0.38-0.24-0.53-0.37c-0.07-0.06-0.07-0.12-0.01-0.17l0.3-0.37c0.06-0.07,0.12-0.07,0.17-0.01
					c0.28,0.22,0.63,0.41,1.05,0.6c0.42,0.18,0.88,0.27,1.37,0.27c0.68,0,1.21-0.16,1.6-0.47c0.39-0.31,0.58-0.73,0.58-1.25
					c0-0.21-0.03-0.4-0.1-0.58c-0.07-0.18-0.18-0.34-0.33-0.48c-0.15-0.14-0.36-0.26-0.62-0.36c-0.26-0.1-0.59-0.17-0.97-0.22
					l-0.39-0.05c-0.83-0.11-1.44-0.35-1.84-0.73c-0.4-0.38-0.6-0.88-0.6-1.5c0-0.74,0.24-1.32,0.72-1.74
					c0.48-0.42,1.13-0.63,1.94-0.63c0.47,0,0.92,0.06,1.34,0.19c0.42,0.13,0.78,0.3,1.07,0.52c0.07,0.04,0.08,0.1,0.02,0.17
					l-0.25,0.38c-0.05,0.06-0.11,0.07-0.17,0.02c-0.34-0.21-0.67-0.36-1-0.47c-0.33-0.1-0.68-0.16-1.04-0.16
					c-0.6,0-1.07,0.15-1.41,0.45c-0.33,0.3-0.5,0.7-0.5,1.2c0,0.43,0.15,0.78,0.45,1.06c0.3,0.27,0.81,0.46,1.53,0.55l0.38,0.05
					c0.86,0.12,1.49,0.37,1.88,0.75c0.39,0.39,0.59,0.89,0.59,1.52c0,0.36-0.06,0.68-0.19,0.98c-0.13,0.3-0.32,0.56-0.57,0.78
					c-0.25,0.22-0.56,0.39-0.93,0.51S163.54,69.19,163.05,69.19z"/>
				<path class="st0" d="M170.49,69.19c-0.27,0-0.55-0.03-0.82-0.08c-0.27-0.05-0.53-0.13-0.78-0.22c-0.24-0.09-0.47-0.2-0.67-0.32
					c-0.2-0.12-0.38-0.24-0.53-0.37c-0.07-0.06-0.07-0.12-0.01-0.17l0.3-0.37c0.06-0.07,0.12-0.07,0.17-0.01
					c0.28,0.22,0.63,0.41,1.05,0.6c0.42,0.18,0.88,0.27,1.37,0.27c0.68,0,1.21-0.16,1.6-0.47c0.39-0.31,0.58-0.73,0.58-1.25
					c0-0.21-0.03-0.4-0.1-0.58c-0.07-0.18-0.18-0.34-0.33-0.48c-0.15-0.14-0.36-0.26-0.62-0.36c-0.26-0.1-0.59-0.17-0.97-0.22
					l-0.39-0.05c-0.83-0.11-1.44-0.35-1.84-0.73c-0.4-0.38-0.6-0.88-0.6-1.5c0-0.74,0.24-1.32,0.72-1.74
					c0.48-0.42,1.13-0.63,1.94-0.63c0.47,0,0.92,0.06,1.34,0.19c0.42,0.13,0.78,0.3,1.07,0.52c0.07,0.04,0.08,0.1,0.02,0.17
					l-0.25,0.38c-0.05,0.06-0.11,0.07-0.17,0.02c-0.34-0.21-0.67-0.36-1-0.47c-0.33-0.1-0.68-0.16-1.04-0.16
					c-0.6,0-1.07,0.15-1.41,0.45c-0.33,0.3-0.5,0.7-0.5,1.2c0,0.43,0.15,0.78,0.45,1.06c0.3,0.27,0.81,0.46,1.53,0.55l0.38,0.05
					c0.86,0.12,1.49,0.37,1.88,0.75c0.39,0.39,0.59,0.89,0.59,1.52c0,0.36-0.06,0.68-0.19,0.98c-0.13,0.3-0.32,0.56-0.57,0.78
					c-0.25,0.22-0.56,0.39-0.93,0.51S170.98,69.19,170.49,69.19z"/>
				<path class="st0" d="M175.4,60.74c0-0.08,0.04-0.12,0.13-0.12h0.47c0.08,0,0.13,0.04,0.13,0.12v8.2c0,0.08-0.04,0.12-0.13,0.12
					h-0.47c-0.08,0-0.13-0.04-0.13-0.12V60.74z"/>
				<path class="st0" d="M181.13,69.19c-0.7,0-1.27-0.16-1.73-0.48c-0.46-0.32-0.79-0.79-1-1.42c-0.04-0.11-0.08-0.23-0.11-0.37
					c-0.03-0.14-0.05-0.3-0.07-0.48c-0.02-0.19-0.04-0.41-0.05-0.66c-0.01-0.26-0.02-0.57-0.02-0.93c0-0.36,0.01-0.67,0.02-0.93
					c0.01-0.26,0.03-0.48,0.05-0.66c0.02-0.19,0.05-0.35,0.07-0.48c0.03-0.13,0.06-0.26,0.11-0.37c0.21-0.62,0.54-1.09,1-1.42
					c0.46-0.32,1.04-0.48,1.73-0.48c0.69,0,1.26,0.16,1.72,0.48c0.46,0.32,0.79,0.79,1,1.42c0.03,0.12,0.07,0.24,0.1,0.37
					c0.03,0.13,0.06,0.29,0.08,0.48c0.02,0.19,0.04,0.41,0.05,0.66c0.01,0.26,0.02,0.57,0.02,0.93c0,0.36-0.01,0.68-0.02,0.93
					c-0.01,0.26-0.03,0.48-0.05,0.66c-0.02,0.19-0.05,0.35-0.08,0.48c-0.03,0.14-0.07,0.26-0.1,0.37c-0.21,0.62-0.54,1.09-1,1.42
					C182.39,69.03,181.82,69.19,181.13,69.19z M183.38,64.84c0-0.34-0.01-0.63-0.02-0.88c-0.01-0.25-0.03-0.46-0.04-0.63
					c-0.02-0.17-0.04-0.32-0.07-0.43c-0.03-0.12-0.06-0.22-0.08-0.3c-0.31-0.95-0.99-1.43-2.04-1.43c-1.05,0-1.74,0.48-2.05,1.43
					c-0.02,0.08-0.05,0.18-0.08,0.3c-0.03,0.12-0.05,0.26-0.07,0.43c-0.02,0.17-0.03,0.38-0.04,0.63c-0.01,0.25-0.02,0.54-0.02,0.88
					c0,0.34,0.01,0.63,0.02,0.88c0.01,0.25,0.03,0.46,0.04,0.63c0.02,0.17,0.04,0.32,0.07,0.43c0.03,0.12,0.06,0.22,0.08,0.3
					c0.31,0.95,1,1.43,2.05,1.43c1.04,0,1.72-0.48,2.04-1.43c0.02-0.08,0.05-0.18,0.08-0.3c0.03-0.12,0.05-0.26,0.07-0.43
					c0.02-0.17,0.03-0.38,0.04-0.63C183.37,65.48,183.38,65.18,183.38,64.84z"/>
				<path class="st0" d="M186.14,60.74c0-0.08,0.04-0.12,0.13-0.12h0.47c0.1,0,0.17,0.04,0.21,0.12l4.2,6.94h0.04v-6.94
					c0-0.08,0.04-0.12,0.13-0.12h0.47c0.08,0,0.13,0.04,0.13,0.12v8.2c0,0.08-0.04,0.12-0.12,0.12h-0.48
					c-0.09,0-0.16-0.04-0.21-0.12l-4.17-6.96h-0.05v6.96c0,0.08-0.04,0.12-0.13,0.12h-0.47c-0.08,0-0.13-0.04-0.13-0.12V60.74z"/>
				<path class="st0" d="M197.7,60.74c0-0.08,0.04-0.12,0.13-0.12h4.84c0.08,0,0.12,0.04,0.12,0.12v0.42c0,0.08-0.04,0.12-0.12,0.12
					h-4.17c-0.05,0-0.07,0.02-0.07,0.07v3.09c0,0.05,0.02,0.07,0.07,0.07h3.59c0.08,0,0.12,0.04,0.12,0.12v0.42
					c0,0.08-0.04,0.12-0.12,0.12h-3.59c-0.05,0-0.07,0.02-0.07,0.07v3.66c0,0.08-0.04,0.12-0.13,0.12h-0.47
					c-0.08,0-0.13-0.04-0.13-0.12V60.74z"/>
				<path class="st0" d="M207.12,69.19c-0.7,0-1.27-0.16-1.73-0.48c-0.46-0.32-0.79-0.79-1-1.42c-0.04-0.11-0.08-0.23-0.11-0.37
					c-0.03-0.14-0.05-0.3-0.07-0.48c-0.02-0.19-0.04-0.41-0.05-0.66c-0.01-0.26-0.02-0.57-0.02-0.93c0-0.36,0.01-0.67,0.02-0.93
					c0.01-0.26,0.03-0.48,0.05-0.66c0.02-0.19,0.05-0.35,0.07-0.48c0.03-0.13,0.06-0.26,0.11-0.37c0.21-0.62,0.54-1.09,1-1.42
					c0.46-0.32,1.04-0.48,1.73-0.48c0.69,0,1.26,0.16,1.72,0.48c0.46,0.32,0.79,0.79,1,1.42c0.03,0.12,0.07,0.24,0.1,0.37
					c0.03,0.13,0.06,0.29,0.08,0.48c0.02,0.19,0.04,0.41,0.05,0.66c0.01,0.26,0.02,0.57,0.02,0.93c0,0.36-0.01,0.68-0.02,0.93
					c-0.01,0.26-0.03,0.48-0.05,0.66c-0.02,0.19-0.05,0.35-0.08,0.48c-0.03,0.14-0.07,0.26-0.1,0.37c-0.21,0.62-0.54,1.09-1,1.42
					C208.38,69.03,207.81,69.19,207.12,69.19z M209.37,64.84c0-0.34-0.01-0.63-0.02-0.88c-0.01-0.25-0.03-0.46-0.04-0.63
					c-0.02-0.17-0.04-0.32-0.07-0.43c-0.03-0.12-0.06-0.22-0.08-0.3c-0.31-0.95-0.99-1.43-2.04-1.43c-1.05,0-1.74,0.48-2.05,1.43
					c-0.02,0.08-0.05,0.18-0.08,0.3c-0.03,0.12-0.05,0.26-0.07,0.43c-0.02,0.17-0.03,0.38-0.04,0.63c-0.01,0.25-0.02,0.54-0.02,0.88
					c0,0.34,0.01,0.63,0.02,0.88c0.01,0.25,0.03,0.46,0.04,0.63c0.02,0.17,0.04,0.32,0.07,0.43c0.03,0.12,0.06,0.22,0.08,0.3
					c0.31,0.95,1,1.43,2.05,1.43c1.04,0,1.72-0.48,2.04-1.43c0.02-0.08,0.05-0.18,0.08-0.3c0.03-0.12,0.05-0.26,0.07-0.43
					c0.02-0.17,0.03-0.38,0.04-0.63C209.36,65.48,209.37,65.18,209.37,64.84z"/>
				<path class="st0" d="M217.13,69.07c-0.07,0-0.12-0.04-0.15-0.11l-1.77-3.66h-0.12h-2.17c-0.05,0-0.07,0.02-0.07,0.07v3.58
					c0,0.08-0.04,0.12-0.13,0.12h-0.47c-0.08,0-0.13-0.04-0.13-0.12v-8.2c0-0.08,0.04-0.12,0.12-0.12h2.84
					c0.8,0,1.44,0.21,1.89,0.62c0.46,0.41,0.68,0.99,0.68,1.71c0,0.59-0.15,1.07-0.45,1.46c-0.3,0.39-0.73,0.64-1.27,0.78l1.84,3.74
					c0.02,0.04,0.03,0.07,0.02,0.1c-0.01,0.02-0.04,0.04-0.08,0.04H217.13z M215.07,64.62c0.6,0,1.06-0.14,1.39-0.43
					c0.32-0.29,0.48-0.7,0.48-1.24c0-0.53-0.16-0.94-0.48-1.23s-0.78-0.43-1.39-0.43h-2.15c-0.05,0-0.07,0.02-0.07,0.07v3.18
					c0,0.05,0.02,0.07,0.07,0.07H215.07z"/>
				<path class="st0" d="M50.4,74.61c0-0.08,0.04-0.12,0.13-0.12h0.48c0.09,0,0.16,0.04,0.19,0.12l2.74,6.05h0.05l2.68-6.05
					c0.03-0.08,0.09-0.12,0.18-0.12h0.49c0.08,0,0.13,0.04,0.13,0.12v8.2c0,0.08-0.04,0.12-0.13,0.12h-0.47
					c-0.08,0-0.13-0.04-0.13-0.12V76.2H56.7l-2.43,5.35c-0.02,0.05-0.05,0.08-0.08,0.11c-0.03,0.02-0.08,0.03-0.14,0.03H53.8
					c-0.1,0-0.17-0.05-0.21-0.14l-2.43-5.35h-0.04v6.61c0,0.08-0.04,0.12-0.13,0.12h-0.47c-0.08,0-0.13-0.04-0.13-0.12V74.61z"/>
				<path class="st0" d="M62.14,74.61c0.02-0.08,0.07-0.12,0.15-0.12h0.45c0.07,0,0.12,0.04,0.15,0.12l2.93,8.2
					c0.02,0.08,0,0.12-0.09,0.12h-0.48c-0.09,0-0.15-0.04-0.16-0.12l-0.75-2.07h-3.68l-0.75,2.07c-0.03,0.08-0.09,0.12-0.16,0.12
					h-0.48c-0.08,0-0.11-0.04-0.09-0.12L62.14,74.61z M64.1,80.04l-1.58-4.41h-0.04l-1.59,4.41H64.1z"/>
				<path class="st0" d="M67.53,74.61c0-0.08,0.04-0.12,0.13-0.12h0.47c0.08,0,0.13,0.04,0.13,0.12v4.87l4.02-4.88
					c0.07-0.07,0.14-0.11,0.21-0.11h0.58c0.04,0,0.07,0.01,0.08,0.04c0.01,0.03,0,0.06-0.03,0.09l-2.67,3.19l2.88,4.98
					c0.02,0.04,0.03,0.07,0.02,0.1c-0.01,0.02-0.04,0.04-0.08,0.04h-0.56c-0.07,0-0.14-0.04-0.19-0.11l-2.55-4.43l-1.73,2.06v2.36
					c0,0.08-0.04,0.12-0.13,0.12h-0.47c-0.08,0-0.13-0.04-0.13-0.12V74.61z"/>
				<path class="st0" d="M75.1,74.61c0-0.08,0.04-0.12,0.13-0.12h0.47c0.08,0,0.13,0.04,0.13,0.12v4.87l4.02-4.88
					c0.07-0.07,0.14-0.11,0.21-0.11h0.58c0.04,0,0.07,0.01,0.08,0.04c0.01,0.03,0,0.06-0.03,0.09l-2.67,3.19l2.88,4.98
					c0.02,0.04,0.03,0.07,0.02,0.1c-0.01,0.02-0.04,0.04-0.08,0.04h-0.56c-0.07,0-0.14-0.04-0.19-0.11l-2.55-4.43l-1.73,2.06v2.36
					c0,0.08-0.04,0.12-0.13,0.12h-0.47c-0.08,0-0.13-0.04-0.13-0.12V74.61z"/>
				<path class="st0" d="M85.25,74.61c0.02-0.08,0.07-0.12,0.15-0.12h0.45c0.07,0,0.12,0.04,0.15,0.12l2.93,8.2
					c0.02,0.08,0,0.12-0.09,0.12h-0.48c-0.09,0-0.15-0.04-0.16-0.12l-0.75-2.07h-3.68l-0.75,2.07c-0.03,0.08-0.09,0.12-0.16,0.12
					h-0.48c-0.08,0-0.11-0.04-0.09-0.12L85.25,74.61z M87.21,80.04l-1.58-4.41h-0.04L84,80.04H87.21z"/>
				<path class="st0" d="M90.65,74.61c0-0.08,0.04-0.12,0.13-0.12h0.47c0.08,0,0.13,0.04,0.13,0.12v3.63c0,0.05,0.02,0.07,0.07,0.07
					h4.16c0.05,0,0.07-0.02,0.07-0.07v-3.63c0-0.08,0.04-0.12,0.13-0.12h0.47c0.08,0,0.13,0.04,0.13,0.12v8.2
					c0,0.08-0.04,0.12-0.13,0.12H95.8c-0.08,0-0.13-0.04-0.13-0.12v-3.75c0-0.05-0.02-0.07-0.07-0.07h-4.16
					c-0.05,0-0.07,0.02-0.07,0.07v3.75c0,0.08-0.04,0.12-0.13,0.12h-0.47c-0.08,0-0.13-0.04-0.13-0.12V74.61z"/>
				<path class="st0" d="M102.06,81.17c-0.03-0.11-0.06-0.23-0.09-0.35c-0.03-0.13-0.05-0.29-0.07-0.48
					c-0.02-0.19-0.03-0.42-0.04-0.68c-0.01-0.26-0.02-0.58-0.02-0.95c0-0.37,0.01-0.69,0.02-0.95c0.01-0.26,0.03-0.49,0.04-0.68
					c0.02-0.19,0.04-0.35,0.07-0.48c0.03-0.13,0.06-0.25,0.09-0.35c0.22-0.64,0.55-1.11,0.99-1.42c0.45-0.31,1.01-0.47,1.68-0.47
					c0.58,0,1.09,0.13,1.53,0.39c0.44,0.26,0.78,0.65,1.02,1.17c0.03,0.07,0.02,0.13-0.04,0.16l-0.41,0.2
					c-0.07,0.04-0.12,0.02-0.16-0.05c-0.19-0.36-0.44-0.66-0.75-0.88c-0.31-0.22-0.71-0.33-1.19-0.33c-0.52,0-0.94,0.12-1.26,0.35
					c-0.32,0.24-0.56,0.59-0.73,1.05c-0.02,0.08-0.05,0.18-0.07,0.3c-0.02,0.12-0.05,0.26-0.06,0.43c-0.02,0.17-0.03,0.38-0.04,0.63
					c-0.01,0.25-0.01,0.55-0.01,0.91c0,0.36,0,0.66,0.01,0.91c0.01,0.25,0.02,0.46,0.04,0.63c0.02,0.17,0.04,0.32,0.06,0.43
					c0.02,0.12,0.05,0.22,0.07,0.3c0.17,0.46,0.41,0.81,0.73,1.05c0.32,0.24,0.74,0.35,1.26,0.35c0.48,0,0.88-0.11,1.19-0.33
					c0.31-0.22,0.56-0.51,0.75-0.88c0.04-0.07,0.09-0.09,0.16-0.05l0.41,0.2c0.06,0.03,0.07,0.09,0.04,0.16
					c-0.24,0.52-0.58,0.91-1.02,1.17c-0.44,0.26-0.95,0.39-1.53,0.39c-0.67,0-1.23-0.16-1.68-0.47
					C102.61,82.28,102.28,81.81,102.06,81.17z"/>
				<path class="st0" d="M109.14,74.61c0-0.08,0.04-0.12,0.13-0.12h0.47c0.08,0,0.13,0.04,0.13,0.12v8.2c0,0.08-0.04,0.12-0.13,0.12
					h-0.47c-0.08,0-0.13-0.04-0.13-0.12V74.61z"/>
				<path class="st0" d="M114.28,82.93c-0.08,0-0.13-0.04-0.13-0.12v-7.58c0-0.05-0.02-0.07-0.07-0.07h-2.43
					c-0.08,0-0.12-0.04-0.12-0.12v-0.42c0-0.08,0.04-0.12,0.12-0.12h5.74c0.08,0,0.12,0.04,0.12,0.12v0.42
					c0,0.08-0.04,0.12-0.12,0.12h-2.43c-0.05,0-0.07,0.02-0.07,0.07v7.58c0,0.08-0.04,0.12-0.13,0.12H114.28z"/>
				<path class="st0" d="M121.41,82.93c-0.08,0-0.13-0.04-0.13-0.12v-3.34l-2.53-4.84c-0.02-0.03-0.01-0.06,0.01-0.09
					c0.02-0.03,0.05-0.04,0.09-0.04h0.48c0.08,0,0.14,0.04,0.19,0.12l2.13,4.04h0.04l2.09-4.04c0.04-0.08,0.1-0.12,0.19-0.12h0.47
					c0.05,0,0.08,0.01,0.1,0.04c0.02,0.03,0.02,0.06,0,0.09l-2.53,4.84v3.34c0,0.08-0.04,0.12-0.13,0.12H121.41z"/>
				<path class="st0" d="M131.66,74.61c0.02-0.08,0.07-0.12,0.15-0.12h0.45c0.07,0,0.12,0.04,0.15,0.12l2.93,8.2
					c0.02,0.08,0,0.12-0.09,0.12h-0.48c-0.09,0-0.15-0.04-0.16-0.12l-0.75-2.07h-3.68l-0.75,2.07c-0.03,0.08-0.09,0.12-0.16,0.12
					h-0.48c-0.08,0-0.11-0.04-0.09-0.12L131.66,74.61z M133.62,80.04l-1.58-4.41h-0.04l-1.59,4.41H133.62z"/>
				<path class="st0" d="M137.06,74.61c0-0.08,0.04-0.12,0.13-0.12h0.47c0.1,0,0.17,0.04,0.21,0.12l4.2,6.94h0.04v-6.94
					c0-0.08,0.04-0.12,0.13-0.12h0.47c0.08,0,0.13,0.04,0.13,0.12v8.2c0,0.08-0.04,0.12-0.12,0.12h-0.48
					c-0.09,0-0.16-0.04-0.21-0.12l-4.17-6.96h-0.05v6.96c0,0.08-0.04,0.12-0.13,0.12h-0.47c-0.08,0-0.13-0.04-0.13-0.12V74.61z"/>
				<path class="st0" d="M145.12,74.61c0-0.08,0.04-0.12,0.12-0.12h2.65c1.42,0,2.32,0.57,2.7,1.71c0.04,0.12,0.08,0.25,0.11,0.38
					c0.03,0.13,0.05,0.29,0.07,0.48c0.02,0.19,0.04,0.41,0.04,0.68c0.01,0.27,0.01,0.59,0.01,0.97c0,0.39,0,0.71-0.01,0.98
					c-0.01,0.26-0.02,0.48-0.04,0.67c-0.02,0.19-0.05,0.35-0.07,0.48c-0.03,0.13-0.06,0.26-0.11,0.39c-0.37,1.14-1.27,1.71-2.7,1.71
					h-2.65c-0.08,0-0.12-0.04-0.12-0.12V74.61z M145.84,82.19c0,0.05,0.02,0.07,0.07,0.07h1.88c0.55,0,0.99-0.1,1.35-0.3
					c0.35-0.2,0.61-0.53,0.76-0.98c0.03-0.1,0.06-0.21,0.09-0.32c0.02-0.12,0.05-0.26,0.06-0.43c0.02-0.17,0.03-0.38,0.04-0.62
					s0.01-0.54,0.01-0.9c0-0.36,0-0.66-0.01-0.9c-0.01-0.24-0.02-0.45-0.04-0.62c-0.02-0.17-0.04-0.31-0.06-0.43
					c-0.02-0.12-0.05-0.22-0.09-0.32c-0.15-0.45-0.4-0.77-0.76-0.97c-0.35-0.2-0.8-0.3-1.35-0.3h-1.88c-0.05,0-0.07,0.02-0.07,0.07
					V82.19z"/>
				<path class="st0" d="M156.3,74.61c0-0.08,0.04-0.12,0.13-0.12h0.47c0.08,0,0.13,0.04,0.13,0.12v3.63c0,0.05,0.02,0.07,0.07,0.07
					h4.16c0.05,0,0.07-0.02,0.07-0.07v-3.63c0-0.08,0.04-0.12,0.13-0.12h0.47c0.08,0,0.13,0.04,0.13,0.12v8.2
					c0,0.08-0.04,0.12-0.13,0.12h-0.47c-0.08,0-0.13-0.04-0.13-0.12v-3.75c0-0.05-0.02-0.07-0.07-0.07h-4.16
					c-0.05,0-0.07,0.02-0.07,0.07v3.75c0,0.08-0.04,0.12-0.13,0.12h-0.47c-0.08,0-0.13-0.04-0.13-0.12V74.61z"/>
				<path class="st0" d="M167.06,83.06c-0.7,0-1.27-0.16-1.73-0.48c-0.46-0.32-0.79-0.79-1-1.42c-0.04-0.11-0.08-0.23-0.11-0.37
					c-0.03-0.14-0.05-0.3-0.07-0.48c-0.02-0.19-0.04-0.41-0.05-0.66c-0.01-0.26-0.02-0.57-0.02-0.93c0-0.36,0.01-0.67,0.02-0.93
					c0.01-0.26,0.03-0.48,0.05-0.66c0.02-0.19,0.05-0.35,0.07-0.48c0.03-0.13,0.06-0.26,0.11-0.37c0.21-0.62,0.54-1.09,1-1.42
					s1.04-0.48,1.73-0.48c0.69,0,1.26,0.16,1.72,0.48s0.79,0.79,1,1.42c0.03,0.12,0.07,0.24,0.1,0.37c0.03,0.13,0.06,0.29,0.08,0.48
					c0.02,0.19,0.04,0.41,0.05,0.66c0.01,0.26,0.02,0.57,0.02,0.93c0,0.36-0.01,0.68-0.02,0.93c-0.01,0.26-0.03,0.48-0.05,0.66
					c-0.02,0.19-0.05,0.35-0.08,0.48c-0.03,0.14-0.07,0.26-0.1,0.37c-0.21,0.62-0.54,1.09-1,1.42
					C168.32,82.9,167.75,83.06,167.06,83.06z M169.31,78.71c0-0.34-0.01-0.63-0.02-0.88c-0.01-0.25-0.03-0.46-0.04-0.63
					c-0.02-0.17-0.04-0.32-0.07-0.43c-0.03-0.12-0.06-0.22-0.08-0.3c-0.31-0.95-0.99-1.43-2.04-1.43c-1.05,0-1.73,0.48-2.05,1.43
					c-0.02,0.08-0.05,0.18-0.08,0.3c-0.03,0.12-0.05,0.26-0.07,0.43c-0.02,0.17-0.03,0.38-0.04,0.63c-0.01,0.25-0.02,0.54-0.02,0.88
					c0,0.34,0.01,0.63,0.02,0.88s0.03,0.46,0.04,0.63c0.02,0.17,0.04,0.32,0.07,0.43c0.03,0.12,0.06,0.22,0.08,0.3
					c0.31,0.95,1,1.43,2.05,1.43c1.04,0,1.72-0.48,2.04-1.43c0.02-0.08,0.05-0.18,0.08-0.3c0.03-0.12,0.05-0.26,0.07-0.43
					c0.02-0.17,0.03-0.38,0.04-0.63C169.3,79.34,169.31,79.05,169.31,78.71z"/>
				<path class="st0" d="M172.07,74.61c0-0.08,0.04-0.12,0.13-0.12h0.47c0.08,0,0.13,0.04,0.13,0.12v7.58
					c0,0.05,0.02,0.07,0.07,0.07h4.17c0.08,0,0.12,0.04,0.12,0.12v0.42c0,0.08-0.04,0.12-0.12,0.12h-4.84
					c-0.08,0-0.13-0.04-0.13-0.12V74.61z"/>
				<path class="st0" d="M179.79,82.93c-0.08,0-0.13-0.04-0.13-0.12v-3.34l-2.53-4.84c-0.02-0.03-0.01-0.06,0.01-0.09
					c0.02-0.03,0.05-0.04,0.09-0.04h0.48c0.08,0,0.14,0.04,0.19,0.12l2.13,4.04h0.04l2.09-4.04c0.04-0.08,0.1-0.12,0.19-0.12h0.47
					c0.05,0,0.08,0.01,0.1,0.04c0.02,0.03,0.02,0.06,0,0.09l-2.53,4.84v3.34c0,0.08-0.04,0.12-0.13,0.12H179.79z"/>
				<path class="st0" d="M190.3,83.06c-0.27,0-0.55-0.03-0.82-0.08c-0.27-0.05-0.53-0.13-0.78-0.22c-0.24-0.09-0.47-0.2-0.67-0.32
					c-0.2-0.12-0.38-0.24-0.53-0.37c-0.07-0.06-0.07-0.12-0.01-0.17l0.3-0.37c0.06-0.07,0.12-0.07,0.17-0.01
					c0.28,0.22,0.63,0.41,1.05,0.6c0.42,0.18,0.88,0.27,1.37,0.27c0.68,0,1.21-0.16,1.6-0.47c0.39-0.31,0.58-0.73,0.58-1.25
					c0-0.21-0.03-0.4-0.1-0.58c-0.07-0.18-0.18-0.34-0.33-0.48c-0.15-0.14-0.36-0.26-0.62-0.36c-0.26-0.1-0.59-0.17-0.97-0.22
					l-0.38-0.05c-0.83-0.11-1.44-0.35-1.84-0.73c-0.4-0.38-0.6-0.88-0.6-1.5c0-0.74,0.24-1.32,0.72-1.74
					c0.48-0.42,1.13-0.63,1.94-0.63c0.47,0,0.92,0.06,1.34,0.19c0.42,0.13,0.78,0.3,1.07,0.52c0.07,0.04,0.08,0.1,0.02,0.17
					l-0.25,0.38c-0.05,0.06-0.11,0.07-0.17,0.02c-0.34-0.21-0.67-0.36-1-0.47c-0.33-0.1-0.68-0.16-1.04-0.16
					c-0.6,0-1.07,0.15-1.41,0.45c-0.33,0.3-0.5,0.7-0.5,1.2c0,0.43,0.15,0.78,0.45,1.06c0.3,0.27,0.81,0.46,1.53,0.55l0.38,0.05
					c0.86,0.12,1.49,0.37,1.88,0.75c0.39,0.39,0.59,0.89,0.59,1.52c0,0.36-0.06,0.68-0.19,0.98c-0.13,0.3-0.32,0.56-0.57,0.78
					c-0.25,0.22-0.56,0.39-0.93,0.51S190.79,83.06,190.3,83.06z"/>
				<path class="st0" d="M195.21,74.61c0-0.08,0.04-0.12,0.13-0.12h0.47c0.08,0,0.13,0.04,0.13,0.12v8.2c0,0.08-0.04,0.12-0.13,0.12
					h-0.47c-0.08,0-0.13-0.04-0.13-0.12V74.61z"/>
				<path class="st0" d="M200.35,82.93c-0.08,0-0.13-0.04-0.13-0.12v-7.58c0-0.05-0.02-0.07-0.07-0.07h-2.43
					c-0.08,0-0.12-0.04-0.12-0.12v-0.42c0-0.08,0.04-0.12,0.12-0.12h5.74c0.08,0,0.12,0.04,0.12,0.12v0.42
					c0,0.08-0.04,0.12-0.12,0.12h-2.43c-0.05,0-0.07,0.02-0.07,0.07v7.58c0,0.08-0.04,0.12-0.13,0.12H200.35z"/>
				<path class="st0" d="M205.23,74.61c0-0.08,0.04-0.12,0.13-0.12h4.84c0.08,0,0.12,0.04,0.12,0.12v0.42
					c0,0.08-0.04,0.12-0.12,0.12h-4.17c-0.05,0-0.07,0.02-0.07,0.07v3.01c0,0.05,0.02,0.07,0.07,0.07h3.59
					c0.08,0,0.12,0.04,0.12,0.12v0.42c0,0.08-0.04,0.12-0.12,0.12h-3.59c-0.05,0-0.07,0.02-0.07,0.07v3.13
					c0,0.05,0.02,0.07,0.07,0.07h4.17c0.08,0,0.12,0.04,0.12,0.12v0.42c0,0.08-0.04,0.12-0.12,0.12h-4.84
					c-0.08,0-0.13-0.04-0.13-0.12V74.61z"/>
				<path class="st0" d="M214.8,83.06c-0.27,0-0.55-0.03-0.82-0.08c-0.27-0.05-0.53-0.13-0.78-0.22c-0.24-0.09-0.47-0.2-0.67-0.32
					c-0.2-0.12-0.38-0.24-0.53-0.37c-0.07-0.06-0.07-0.12-0.01-0.17l0.3-0.37c0.06-0.07,0.12-0.07,0.17-0.01
					c0.28,0.22,0.63,0.41,1.05,0.6c0.42,0.18,0.88,0.27,1.37,0.27c0.68,0,1.21-0.16,1.6-0.47c0.39-0.31,0.58-0.73,0.58-1.25
					c0-0.21-0.03-0.4-0.1-0.58c-0.07-0.18-0.18-0.34-0.33-0.48c-0.15-0.14-0.36-0.26-0.62-0.36c-0.26-0.1-0.59-0.17-0.97-0.22
					l-0.38-0.05c-0.83-0.11-1.44-0.35-1.84-0.73c-0.4-0.38-0.6-0.88-0.6-1.5c0-0.74,0.24-1.32,0.72-1.74
					c0.48-0.42,1.13-0.63,1.94-0.63c0.47,0,0.92,0.06,1.34,0.19c0.42,0.13,0.78,0.3,1.07,0.52c0.07,0.04,0.08,0.1,0.02,0.17
					l-0.25,0.38c-0.05,0.06-0.11,0.07-0.17,0.02c-0.34-0.21-0.67-0.36-1-0.47c-0.33-0.1-0.68-0.16-1.04-0.16
					c-0.6,0-1.07,0.15-1.41,0.45c-0.33,0.3-0.5,0.7-0.5,1.2c0,0.43,0.15,0.78,0.45,1.06c0.3,0.27,0.81,0.46,1.53,0.55l0.38,0.05
					c0.86,0.12,1.49,0.37,1.88,0.75c0.39,0.39,0.59,0.89,0.59,1.52c0,0.36-0.06,0.68-0.19,0.98c-0.13,0.3-0.32,0.56-0.57,0.78
					c-0.25,0.22-0.56,0.39-0.93,0.51C215.72,83,215.29,83.06,214.8,83.06z"/>
			</g>
			<g>
				<g>
					<path class="st1" d="M23.06,18.37c-0.62,0-1.13,0.52-1.13,1.13s0.49,1.13,1.13,1.13c0.62,0,1.13-0.52,1.13-1.13
						C24.19,18.88,23.67,18.37,23.06,18.37z M20.28,18.37c-0.62,0-1.12,0.52-1.12,1.13s0.46,1.13,1.12,1.13
						c0.64,0,1.13-0.51,1.13-1.13C21.41,18.86,20.91,18.37,20.28,18.37z"/>
					<path class="st1" d="M44.47,21.58c-3.01,0-4.51,2.01-4.51,4.21c0,1.23,0.33,2,0.96,2.48c-0.08-0.02-0.43-0.12-0.96-0.12h-2.11
						c-0.17-3.33-1.65-5.06-3.84-6.05l4.23-2.56v-2.27l-6.87,4.31v1.68c2.76,0.64,4.15,2.2,4.24,4.89H25.52v-5.97
						c0,0-1.58-0.6-3.64-0.6c-3.18,0-4.58,2.08-4.58,4.35c0,2.47,1.27,4.03,4.63,4.03h26.46v-4.39
						C48.39,23.14,47.18,21.58,44.47,21.58z M23.3,28.16h-1.11c-1.82,0-2.6-0.85-2.6-2.43c0-1.35,0.76-2.34,2.06-2.34
						c0.99,0,1.65,0.31,1.65,0.31V28.16z M46.15,28.16h-1.32c-1.8,0-2.6-0.8-2.6-2.43c0-1.35,0.76-2.34,2.06-2.34
						c1.16,0,1.86,0.73,1.86,2.47V28.16z"/>
					<path class="st1" d="M59.93,18.37c-0.62,0-1.13,0.52-1.13,1.13s0.48,1.13,1.13,1.13c0.62,0,1.13-0.52,1.13-1.13
						C61.05,18.88,60.54,18.37,59.93,18.37z M57.15,18.37c-0.62,0-1.13,0.52-1.13,1.13s0.47,1.13,1.13,1.13
						c0.64,0,1.13-0.51,1.13-1.13C58.28,18.86,57.77,18.37,57.15,18.37z"/>
					<path class="st1" d="M71.2,18.36c-0.64,0-1.19,0.55-1.19,1.19c0,0.64,0.53,1.2,1.19,1.2c0.64,0,1.2-0.53,1.2-1.2
						C72.4,18.89,71.84,18.36,71.2,18.36z"/>
					<path class="st1" d="M78.4,31.23c-0.62,0-1.13,0.5-1.13,1.12c0,0.61,0.48,1.13,1.13,1.13c0.62,0,1.13-0.52,1.13-1.13
						C79.53,31.73,79.01,31.23,78.4,31.23z M75.62,31.23c-0.62,0-1.13,0.5-1.13,1.12c0,0.61,0.49,1.13,1.13,1.13
						c0.62,0,1.13-0.52,1.13-1.13C76.75,31.73,76.23,31.23,75.62,31.23z"/>
					<path class="st1" d="M75.92,21.81v6.35h-3.57v-6.35h-2.29v6.35h-7.67v-5.97c0,0-1.58-0.6-3.64-0.6c-3.18,0-4.58,2.08-4.58,4.35
						c0,2.47,1.27,4.03,4.63,4.03h19.42v-8.16H75.92z M60.17,28.16h-1.11c-1.82,0-2.6-0.85-2.6-2.43c0-1.35,0.76-2.34,2.06-2.34
						c0.99,0,1.65,0.31,1.65,0.31V28.16z"/>
					<path class="st1" d="M101.92,17.73v10.43h-3.17v-2.58c0-2.43-1.21-3.99-3.92-3.99c-3.01,0-4.51,2.01-4.51,4.21
						c0,1.79-0.67,2.36-1.72,2.36h-0.83c-0.21-3.87-2.2-5.83-5.78-6.77l-0.55,1.91c2.74,0.69,3.99,2.29,4.09,4.85H80.4v1.81h8.45
						c1.46,0,2.15-0.54,2.47-1.34c0.61,0.8,1.39,1.34,3.88,1.34h9.02V17.73H101.92z M96.52,28.16h-1.32c-1.8,0-2.6-0.8-2.6-2.43
						c0-1.35,0.76-2.34,2.06-2.34c1.16,0,1.86,0.73,1.86,2.47V28.16z"/>
					<path class="st1" d="M116.03,18.37c-0.62,0-1.12,0.52-1.12,1.13s0.48,1.13,1.12,1.13c0.63,0,1.13-0.52,1.13-1.13
						C117.16,18.88,116.64,18.37,116.03,18.37z M113.25,18.37c-0.62,0-1.12,0.52-1.12,1.13s0.46,1.13,1.12,1.13
						c0.64,0,1.13-0.51,1.13-1.13C114.38,18.86,113.88,18.37,113.25,18.37z"/>
					<path class="st1" d="M125.49,31.23c-0.63,0-1.13,0.5-1.13,1.12c0,0.61,0.48,1.13,1.13,1.13c0.62,0,1.12-0.52,1.12-1.13
						C126.61,31.73,126.09,31.23,125.49,31.23z M128.27,31.23c-0.63,0-1.13,0.5-1.13,1.12c0,0.61,0.48,1.13,1.13,1.13
						c0.62,0,1.12-0.52,1.12-1.13C129.39,31.73,128.87,31.23,128.27,31.23z"/>
					<path class="st1" d="M156.77,17.73v10.43h-3.18v-2.58c0-2.43-1.21-3.99-3.92-3.99c-3,0-4.51,2.01-4.51,4.21
						c0,1.79-0.68,2.36-1.72,2.36h-1.65V17.73h-2.29v10.43h-2.83c-0.17-3.33-1.65-5.06-3.84-6.05l4.23-2.56v-2.27l-6.87,4.31v1.68
						c2.76,0.64,4.15,2.2,4.24,4.89h-6.41v-6.35h-2.29v6.35h-7.25v-5.97c0,0-1.58-0.6-3.64-0.6c-3.18,0-4.58,2.08-4.58,4.35
						c0,2.47,1.27,4.03,4.64,4.03h28.78c1.45,0,2.15-0.54,2.47-1.34c0.6,0.8,1.38,1.34,3.88,1.34h9.02V17.73H156.77z M116.27,28.16
						h-1.11c-1.82,0-2.6-0.85-2.6-2.43c0-1.35,0.76-2.34,2.06-2.34c0.99,0,1.65,0.31,1.65,0.31V28.16z M151.35,28.16h-1.32
						c-1.81,0-2.6-0.8-2.6-2.43c0-1.35,0.76-2.34,2.06-2.34c1.16,0,1.86,0.73,1.86,2.47V28.16z"/>
					<path class="st1" d="M161.83,17.73h2.29v12.23h-2.29V17.73z"/>
					<path class="st1" d="M175.96,18.37c-0.62,0-1.13,0.52-1.13,1.13s0.48,1.13,1.13,1.13c0.62,0,1.13-0.52,1.13-1.13
						C177.08,18.88,176.56,18.37,175.96,18.37z M173.18,18.37c-0.62,0-1.13,0.52-1.13,1.13s0.47,1.13,1.13,1.13
						c0.64,0,1.13-0.51,1.13-1.13C174.31,18.86,173.8,18.37,173.18,18.37z"/>
					<path class="st1" d="M187.73,19.74c-0.97,0-1.25-0.24-1.25-0.64c0-0.33,0.26-0.59,0.85-0.59c0.45,0,0.85,0.09,0.94,0.1
						l0.22-1.21c-0.12-0.02-0.55-0.1-1.02-0.1c-1.82,0-2.55,0.93-2.55,1.79c0,0.31,0.17,0.62,0.44,0.76
						c-0.24-0.06-0.66-0.1-1.05-0.1v1.25h4.48v-1.25H187.73z"/>
					<path class="st1" d="M194.05,31.23c-0.62,0-1.13,0.5-1.13,1.12c0,0.61,0.48,1.13,1.13,1.13c0.62,0,1.13-0.52,1.13-1.13
						C195.18,31.73,194.66,31.23,194.05,31.23z M191.27,31.23c-0.62,0-1.13,0.5-1.13,1.12c0,0.61,0.48,1.13,1.13,1.13
						c0.62,0,1.13-0.52,1.13-1.13C192.4,31.73,191.88,31.23,191.27,31.23z"/>
					<path class="st1" d="M210.45,17.73v10.43h-2.78v-0.05c0-5.07-2.47-7.13-6.8-7.13c-1.39,0-2.97,0.28-4.22,0.68l0.22,1.79
						c1.09-0.37,2.52-0.68,3.71-0.68c3.43,0,4.9,1.59,4.9,5.19v0.21h-1.74v-0.4c0-1.96-0.87-3.66-3.19-3.66
						c-2.1,0-3.33,1.23-3.33,2.92c0,0.73,0.35,1.14,0.42,1.23c-0.07-0.01-0.37-0.08-0.78-0.08h-3.04v-6.35h-2.29v6.35h-3.58v-6.35
						h-2.29v6.35h-7.25v-5.97c0,0-1.58-0.6-3.65-0.6c-3.17,0-4.58,2.08-4.58,4.35c0,2.47,1.27,4.03,4.63,4.03h37.91V17.73H210.45z
						 M176.2,28.16h-1.11c-1.83,0-2.6-0.85-2.6-2.43c0-1.35,0.76-2.34,2.06-2.34c0.99,0,1.65,0.31,1.65,0.31V28.16z M201.87,28.23
						h-1.14c-0.89,0-1.65-0.39-1.65-1.37c0-0.73,0.51-1.18,1.3-1.18c1.02,0,1.5,0.71,1.5,2.05V28.23z"/>
					<path class="st1" d="M215.51,17.73h2.29v12.23h-2.29V17.73z"/>
					<path class="st1" d="M23.04,37.42c-0.62,0-1.13,0.52-1.13,1.12c0,0.61,0.49,1.13,1.13,1.13c0.62,0,1.13-0.52,1.13-1.13
						C24.17,37.92,23.65,37.42,23.04,37.42z M20.26,37.42c-0.62,0-1.12,0.52-1.12,1.12c0,0.61,0.46,1.13,1.12,1.13
						c0.64,0,1.13-0.5,1.13-1.13C21.39,37.91,20.89,37.42,20.26,37.42z"/>
					<path class="st1" d="M40.68,40.16l-2.24,0.31c0.3,1.32,0.51,2.92,0.51,4.65c0,0.54-0.03,1.38-0.1,2.08h-0.47
						c-1.6,0-2.06-0.28-2.06-1.65V41.2h-2.2v3.92c0,1.68-0.51,2.22-1.41,2.22c-1.02,0-1.2-0.68-1.2-2.24v-3.21h-2.29v3.16
						c0,1.7-0.44,2.15-1.56,2.15H25.5v-5.97c0,0-1.58-0.61-3.64-0.61c-3.18,0-4.58,2.08-4.58,4.36c0,2.47,1.27,4.02,4.63,4.02h5.73
						c1.27,0,1.96-0.42,2.31-1.21c0.28,0.83,1.2,1.35,2.33,1.35c1.36,0,2.27-0.59,2.62-1.34c0.51,0.96,1.43,1.2,3.25,1.2h2.86
						c0.16-1.23,0.24-2.78,0.24-4.04C41.24,43.24,41.01,41.55,40.68,40.16z M23.28,47.21h-1.11c-1.82,0-2.6-0.85-2.6-2.43
						c0-1.36,0.76-2.34,2.06-2.34c0.99,0,1.65,0.31,1.65,0.31V47.21z"/>
					<path class="st1" d="M55.54,37.42c-0.62,0-1.13,0.52-1.13,1.12c0,0.61,0.47,1.13,1.13,1.13c0.64,0,1.13-0.5,1.13-1.13
						C56.66,37.91,56.16,37.42,55.54,37.42z M58.31,37.42c-0.62,0-1.13,0.52-1.13,1.12c0,0.61,0.48,1.13,1.13,1.13
						c0.62,0,1.13-0.52,1.13-1.13C59.44,37.92,58.92,37.42,58.31,37.42z"/>
					<path class="st1" d="M75.36,36.78v10.43h-3.17v-2.59c0-2.42-1.21-3.99-3.92-3.99c-3.01,0-4.51,2.02-4.51,4.22
						c0,1.79-0.67,2.36-1.72,2.36h-0.6c-0.61,0-1.34,0.08-1.34,0.08c0.66-0.55,1-1.61,1-2.62c0-2.76-1.58-4.04-4.02-4.04
						c-2.64,0-4.42,1.82-4.42,4.32c0,0.99,0.28,1.8,0.82,2.34c0,0-0.54-0.08-1.08-0.08h-1.75c-0.21-3.87-2.2-5.83-5.78-6.77
						l-0.55,1.91c2.74,0.69,3.99,2.29,4.09,4.86h-5.14v1.8h19.02c1.46,0,2.15-0.53,2.47-1.34c0.61,0.8,1.39,1.34,3.88,1.34h9.02
						V36.78H75.36z M56.87,47.21c-1.27,0-1.91-0.82-1.91-2.45c0-1.63,0.96-2.32,1.95-2.32c1.3,0,1.9,0.83,1.9,2.35
						C58.81,46.4,57.97,47.21,56.87,47.21z M69.95,47.21h-1.32c-1.8,0-2.6-0.8-2.6-2.43c0-1.36,0.76-2.34,2.06-2.34
						c1.16,0,1.86,0.73,1.86,2.46V47.21z"/>
					<path class="st1" d="M80.43,36.78h2.29v12.23h-2.29V36.78z"/>
					<path class="st1" d="M104.01,47.21v1.8h-10.5v0.07c0,2.22-0.76,4.34-4.29,4.34c-0.53,0-1.04-0.07-1.45-0.17l0.17-1.83
						c0.42,0.12,0.85,0.21,1.41,0.21c1.18,0,1.87-0.56,1.87-2.43v-8.34h2.29v6.35h4.23c-0.76-0.46-1.34-1.43-1.34-2.59
						c0-2.15,1.47-3.99,4.53-3.99c1.18,0,2.15,0.33,2.15,0.33l-0.4,1.82c0,0-0.8-0.37-1.8-0.37c-1.3,0-2.19,0.87-2.19,2.2
						c0,1.47,1.2,2.59,3.95,2.59H104.01z"/>
					<path class="st1" d="M116.41,37.5c-0.62,0-1.13,0.52-1.13,1.13c0,0.62,0.51,1.13,1.13,1.13c0.61,0,1.13-0.52,1.13-1.13
						C117.54,38.01,117.02,37.5,116.41,37.5z M117.85,35.23c-0.62,0-1.13,0.52-1.13,1.13c0,0.62,0.51,1.13,1.13,1.13
						c0.62,0,1.13-0.53,1.13-1.13C118.98,35.73,118.47,35.23,117.85,35.23z M119.28,37.5c-0.61,0-1.13,0.52-1.13,1.13
						c0,0.62,0.52,1.13,1.13,1.13c0.62,0,1.12-0.52,1.12-1.13C120.4,38.01,119.9,37.5,119.28,37.5z"/>
					<path class="st1" d="M138.81,36.78v10.43h-3.18v-2.59c0-2.42-1.21-3.99-3.92-3.99c-3.01,0-4.51,2.02-4.51,4.22
						c0,1.79-0.67,2.36-1.72,2.36h-1.57c0.05-0.77,0.07-1.54,0.07-2.24c0-1.72-0.23-3.41-0.56-4.81l-2.24,0.31
						c0.3,1.32,0.51,2.92,0.51,4.65c0,0.54-0.03,1.38-0.1,2.08h-0.47c-1.59,0-2.06-0.28-2.06-1.65V41.2h-2.2v3.92
						c0,1.68-0.51,2.22-1.41,2.22c-1.02,0-1.2-0.68-1.2-2.24v-3.21h-2.29v3.16c0,1.7-0.43,2.15-1.56,2.15h-2.15V36.78h-2.29v12.23
						h4.42c1.27,0,1.96-0.42,2.31-1.21c0.28,0.83,1.2,1.35,2.33,1.35c1.36,0,2.27-0.59,2.62-1.34c0.51,0.96,1.43,1.2,3.25,1.2h4.86
						c1.45,0,2.15-0.53,2.46-1.34c0.61,0.8,1.39,1.34,3.88,1.34h9.02V36.78H138.81z M133.4,47.21h-1.32c-1.8,0-2.6-0.8-2.6-2.43
						c0-1.36,0.76-2.34,2.06-2.34c1.16,0,1.86,0.73,1.86,2.46V47.21z"/>
					<path class="st1" d="M143.87,36.78h2.29v12.23h-2.29V36.78z"/>
					<path class="st1" d="M148.61,53.15l0.14-1.87c0,0,1.35,0.29,2.71,0.29c1.8,0,3-0.68,3-2.31v-0.26h-1.37
						c-3.37,0-4.63-1.56-4.63-4.02c0-2.27,1.41-4.35,4.58-4.35c2.06,0,3.64,0.61,3.64,0.61v7.81c0,2.39-1.56,4.34-5.43,4.34
						C149.95,53.38,148.61,53.15,148.61,53.15z M154.46,42.74c0,0-0.66-0.31-1.65-0.31c-1.3,0-2.06,0.99-2.06,2.34
						c0,1.58,0.78,2.43,2.6,2.43h1.11V42.74z"/>
					<path class="st1" d="M168.49,37.42c-0.62,0-1.13,0.52-1.13,1.12c0,0.61,0.49,1.13,1.13,1.13c0.63,0,1.13-0.52,1.13-1.13
						C169.62,37.92,169.1,37.42,168.49,37.42z M165.71,37.42c-0.62,0-1.12,0.52-1.12,1.12c0,0.61,0.46,1.13,1.12,1.13
						c0.64,0,1.13-0.5,1.13-1.13C166.84,37.91,166.34,37.42,165.71,37.42z"/>
					<path class="st1" d="M178.33,40.63c-3.01,0-4.51,2.02-4.51,4.22c0,1.23,0.33,1.99,0.96,2.47c-0.08-0.02-0.43-0.11-0.96-0.11
						h-2.86v-5.97c0,0-1.58-0.61-3.64-0.61c-3.18,0-4.58,2.08-4.58,4.36c0,2.47,1.27,4.02,4.63,4.02h14.89v-4.39
						C182.25,42.19,181.04,40.63,178.33,40.63z M168.73,47.21h-1.11c-1.82,0-2.6-0.85-2.6-2.43c0-1.36,0.76-2.34,2.06-2.34
						c0.99,0,1.65,0.31,1.65,0.31V47.21z M180.01,47.21h-1.32c-1.8,0-2.6-0.8-2.6-2.43c0-1.36,0.76-2.34,2.06-2.34
						c1.16,0,1.86,0.73,1.86,2.46V47.21z"/>
					<path class="st1" d="M210.44,36.78v10.43h-3.17v-2.59c0-2.42-1.21-3.99-3.92-3.99c-3.01,0-4.51,2.02-4.51,4.22
						c0,1.79-0.67,2.36-1.72,2.36h-0.9c-0.17-3.33-1.65-5.07-3.84-6.06l4.24-2.55v-2.27l-6.88,4.3v1.68c2.76,0.64,4.15,2.2,4.24,4.9
						h-5.99v-6.35h-2.29v8.34c0,1.87-0.7,2.43-1.88,2.43c-0.55,0-0.99-0.09-1.41-0.21l-0.17,1.83c0.42,0.1,0.92,0.17,1.45,0.17
						c3.52,0,4.29-2.12,4.29-4.34v-0.07h9.37c1.46,0,2.15-0.53,2.47-1.34c0.61,0.8,1.39,1.34,3.88,1.34h9.02V36.78H210.44z
						 M205.03,47.21h-1.32c-1.8,0-2.6-0.8-2.6-2.43c0-1.36,0.77-2.34,2.07-2.34c1.16,0,1.86,0.73,1.86,2.46V47.21z"/>
					<path class="st1" d="M215.51,36.78h2.29v12.23h-2.29V36.78z"/>
				</g>
			</g>
		</g>
		<g>
			<g>
				<g>
					<rect x="283.46" y="72.58" class="st1" width="3.46" height="3.46"/>
					<rect x="283.46" y="79.49" class="st1" width="3.46" height="3.46"/>
					<path class="st1" d="M255.81,65.66v13.82h-3.46v-6.91h-17.28v10.37h44.93V72.57h-17.28v6.91h-3.46V69.12h27.65v-3.46H255.81z
						 M248.9,79.49h-10.37v-3.45h10.37V79.49z M266.18,76.03h10.37v3.45h-10.37V76.03z"/>
					<rect x="290.37" y="31.1" class="st1" width="3.46" height="3.46"/>
					<rect x="297.29" y="31.1" class="st1" width="3.46" height="3.46"/>
					<path class="st1" d="M290.38,38.01V55.3h6.91v3.45h-10.37V31.1h-3.45v31.11h13.82v3.45h-6.91v17.28h10.37V38.01H290.38z
						 M297.29,79.49h-3.46V69.12h3.46V79.49z M297.29,51.84h-3.46V41.47h3.46V51.84z"/>
					<rect x="248.9" y="24.19" class="st1" width="3.46" height="3.46"/>
					<rect x="248.9" y="17.28" class="st1" width="3.46" height="3.46"/>
					<path class="st1" d="M255.81,17.28v10.37h17.28v-6.91h3.46V31.1H248.9v3.46h31.1V20.74h3.46v6.91h17.28V17.28H255.81z
						 M269.64,24.19h-10.37v-3.45h10.37V24.19z M297.29,24.19h-10.37v-3.45h10.37V24.19z"/>
					<rect x="241.99" y="65.66" class="st1" width="3.46" height="3.46"/>
					<rect x="235.08" y="65.66" class="st1" width="3.46" height="3.46"/>
					<path class="st1" d="M238.53,38.01v-3.45h6.91V17.28h-10.37v44.93h10.37V44.93h-6.91v-3.45h10.37v27.65h3.45V38.01H238.53z
						 M238.53,20.74h3.46V31.1h-3.46V20.74z M241.99,48.38v10.37h-3.46V48.38H241.99z"/>
				</g>
			</g>
			<g>
				<path class="st0" d="M272.33,46.03c0.34,0.72,0.54,1.52,0.62,2.27c-0.84-1.08-1.85-2.03-2.94-2.75
					c0.09,0.12,0.18,0.25,0.26,0.38c0.89,1.45,0.74,3.36,0.22,4.91c-0.32-1.46-0.88-2.88-1.6-4.1c-0.17-0.28-0.34-0.55-0.53-0.82
					l0.26,6.53c0,0.23-0.27,0.65-0.72,0.65s-0.72-0.41-0.72-0.65l0.26-6.52c-0.19,0.26-0.37,0.53-0.53,0.81
					c-0.72,1.22-1.28,2.64-1.6,4.1c-0.51-1.55-0.67-3.47,0.22-4.91c0.08-0.13,0.17-0.26,0.26-0.38c-1.08,0.72-2.1,1.67-2.94,2.75
					c0.17-1.5,0.78-3.2,2.12-4.05c0.45-0.28,0.93-0.47,1.43-0.57c0-0.03,0-0.02,0-0.05c-0.29,0.02-0.57,0.04-0.86,0.09
					c-1.25,0.19-2.45,0.55-3.6,1.09c0.84-1.28,2.17-2.24,3.42-2.41c0.2-0.03,0.41-0.04,0.62-0.03c-0.75-0.38-1.57-0.7-2.41-0.92
					c1.14-0.31,2.38-0.24,3.45,0.23c0.31-1.32,0.87-2.1,0.87-2.1s0.56,0.78,0.87,2.1c1.07-0.48,2.31-0.54,3.45-0.23
					c-0.84,0.22-1.66,0.54-2.41,0.92c0.21-0.01,0.42,0,0.62,0.03c0.63,0.08,1.28,0.36,1.87,0.79c0.6,0.42,1.14,0.98,1.56,1.62
					c-1.15-0.54-2.35-0.9-3.6-1.09c-0.29-0.04-0.57-0.07-0.86-0.09c0,0.04,0,0.02,0,0.05c0.5,0.1,0.98,0.29,1.43,0.57
					C271.5,44.68,271.99,45.31,272.33,46.03z"/>
				<path class="st0" d="M280,50.54c-1.33-0.15-2.73,0.13-3.96,0.88l-7.02,4.29l2.82,1.72l0.39-0.64c-0.01,0-0.02-0.01-0.03-0.01
					c-0.31-0.19-0.41-0.61-0.22-0.92c0.19-0.31,0.6-0.41,0.92-0.22c0.31,0.19,0.41,0.6,0.22,0.92l-0.74,1.21l0.37,0.23l0.84,0.51
					c0.28,0.18,0.62,0.19,0.9,0.07c0.01,0.15-0.01,0.3-0.07,0.44c-0.02,0.05-0.04,0.1-0.08,0.15c-0.28,0.47-0.9,0.62-1.36,0.33
					l-1.21-0.74l-0.39,0.64c0.01,0,0.02,0.01,0.03,0.01c0.31,0.19,0.41,0.6,0.22,0.92c-0.19,0.31-0.61,0.42-0.92,0.22
					s-0.41-0.61-0.22-0.92l0.74-1.21l-3.32-2.03l-3.32,2.03l0.74,1.21c0.19,0.31,0.09,0.73-0.22,0.92s-0.72,0.09-0.92-0.22
					c-0.19-0.31-0.09-0.72,0.22-0.92c0.01,0,0.02-0.01,0.03-0.02l-0.39-0.64l-1.21,0.74c-0.47,0.29-1.08,0.14-1.37-0.33
					c-0.03-0.05-0.05-0.1-0.08-0.15c-0.05-0.14-0.08-0.3-0.07-0.44c0.29,0.12,0.62,0.11,0.91-0.07l0.84-0.51l0.38-0.23l-0.74-1.21
					c-0.19-0.31-0.09-0.72,0.22-0.92c0.31-0.19,0.72-0.09,0.92,0.22c0.19,0.31,0.09,0.73-0.22,0.92c-0.01,0-0.02,0.01-0.03,0.01
					l0.39,0.64l2.82-1.72l-7.02-4.29c-1.23-0.75-2.63-1.03-3.96-0.88c1.32-0.9,3.11-1.01,4.57-0.11l7.53,4.6l7.53-4.6
					C276.89,49.54,278.68,49.64,280,50.54z"/>
			</g>
		</g>
	</g>
</g>
<g id="Clear_Space">
	<rect x="300.74" class="st2" width="17.28" height="17.28"/>
	<rect x="300.74" y="83.06" class="st2" width="17.28" height="17.28"/>
	<rect class="st2" width="17.28" height="17.28"/>
	<rect y="83.06" class="st2" width="17.28" height="17.28"/>
</g>
</svg>
